<?xml version="1.0" encoding="utf-8"?>
<!-- Generator: Adobe Illustrator 23.0.1, SVG Export Plug-In . SVG Version: 6.00 Build 0)  -->
<svg version="1.1" id="Слой_1" xmlns="http://www.w3.org/2000/svg" xmlns:xlink="http://www.w3.org/1999/xlink" x="0px" y="0px"
	 viewBox="0 0 80 64" enable-background="new 0 0 80 64" xml:space="preserve" width="79" height="63">
<g>
	<g>
		<path fill="#EEEEEE" d="M58,64c-13.9-7.49-17.66-26.54-8.48-41.83c4.95-8.25,12.2-13.81,20.28-18.55C71.22,2.78,72.6,1.87,74,1
			c2,0,4,0,6,0c0,2.33,0,4.67,0,7c-3.14,1.88-6.46,3.53-9.4,5.69c-5.68,4.19-10.83,8.95-12.94,16.04c-1.44,4.85-0.38,6.05,4.55,5.53
			c8.77-0.92,14,3.06,15.5,11.73C79.07,54.86,75.25,60.04,69,64C65.33,64,61.67,64,58,64z"/>
		<path fill="#EEEEEE" d="M32,1c4.23,6.51,4.28,6.6-2.4,10.9c-7.12,4.58-13.44,9.79-16.02,18.29c-1.27,4.2-0.12,5.61,4.06,5.17
			c8-0.84,13.02,1.78,15.28,7.98c2.76,7.57,0.46,15-5.92,19.2c-0.69,0.45-1.34,0.98-2,1.47c-3.67,0-7.33,0-11,0
			C6.67,61.1,2.75,55.43,1,48c0-4.67,0-9.33,0-14c3.02-11.2,9.11-20.22,18.91-26.59C23.25,5.24,26.64,3.14,30,1
			C30.67,1,31.33,1,32,1z"/>
	</g>
</g>
</svg>
