<?xml version="1.0" encoding="utf-8"?>
<!-- Generator: Adobe Illustrator 23.0.1, SVG Export Plug-In . SVG Version: 6.00 Build 0)  -->
<svg version="1.1" id="Layer_1" xmlns="http://www.w3.org/2000/svg" xmlns:xlink="http://www.w3.org/1999/xlink" x="0px" y="0px"
	 viewBox="-7.45 -8.15 31.92 31.92" enable-background="new -7.45 -8.15 31.92 31.92" xml:space="preserve" width="32" height="32">
<g>
	<path fill="#283645" d="M8.51-4.15c6.59,0,11.96,5.37,11.96,11.96c0,6.59-5.37,11.96-11.96,11.96S-3.45,14.41-3.45,7.81
		C-3.45,1.22,1.91-4.15,8.51-4.15 M8.51-8.15C-0.31-8.15-7.45-1-7.45,7.81c0,8.81,7.15,15.96,15.96,15.96s15.96-7.15,15.96-15.96
		C24.47-1,17.32-8.15,8.51-8.15L8.51-8.15z"/>
</g>
<path fill="#283645" d="M8,16.52c4.71,0,8.52-3.81,8.52-8.52c0-4.71-3.81-8.52-8.52-8.52"/>
</svg>
