<?xml version="1.0" encoding="utf-8"?>
<!-- Generator: Adobe Illustrator 23.0.1, SVG Export Plug-In . SVG Version: 6.00 Build 0)  -->
<svg version="1.1" id="Слой_1" xmlns="http://www.w3.org/2000/svg" xmlns:xlink="http://www.w3.org/1999/xlink" x="0px" y="0px"
	 viewBox="0 0 238 276" enable-background="new 0 0 238 276" xml:space="preserve" width="238" height="276">
<g>
	<path fill="#DDDDDD" d="M140,277c-13.33,0-26.67,0-40,0c-0.33-2.46-2.41-1.84-3.9-2.17c-22.23-4.96-41.88-14.75-58.41-30.63
		C19.61,226.84,8.4,205.77,3.1,181.4c-0.31-1.42,0.03-3.15-2.1-3.4c0-13.33,0-26.67,0-40c2.42-0.4,1.74-2.39,2.07-3.92
		c4.42-20.54,13.21-38.98,27.16-54.73C49.32,57.8,73.06,44.45,101.62,40c2.2-0.34,3.09-1.31,3.37-3.5c0.67-5.26-2.93-4.47-6.05-4.51
		c-7.59-0.08-12.74-3.49-15.09-9.97c-2.39-6.58-0.54-13.33,5.02-17.91C89.94,3.25,91.04,2.56,91,1c19.33,0,38.67,0,58,0
		c0.01,2.94,3.06,3.23,4.41,5.04c3.92,5.26,4.97,10.99,2.35,16.92c-2.95,6.68-8.64,9.25-15.79,9.07c-2.19-0.06-4.86-0.75-4.98,3.05
		c-0.1,3.28,0.92,4.83,4.47,5.04c3.28,0.2,6.55,1.07,9.75,1.94c14.72,4.03,28.6,9.9,40.76,19.31c3.22,2.5,5.83,3.35,8.77-0.42
		c1.27-1.64,3.3-2.79,5.18-3.83c5.75-3.16,11.29-2.58,15.14,1.39c3.78,3.9,4.26,9.67,0.99,15.23c-1.34,2.27-2.98,4.42-4.79,6.33
		c-1.73,1.82-2.31,2.97-0.49,5.38c11.11,14.66,18.59,31.02,22.13,49.12c0.28,1.43-0.03,3.14,2.09,3.41c0,13.33,0,26.67,0,40
		c-2.45,0.33-1.84,2.4-2.17,3.9c-4.98,22.22-14.83,41.85-30.63,58.42c-17.31,18.15-38.41,29.34-62.79,34.59
		C141.99,275.2,140.25,274.86,140,277z M221.01,157.13c0-55.42-44.62-100.41-98.75-101.33c-56.23-0.95-102.17,44.24-103.4,98.82
		c-1.27,56.52,44.46,102.5,99.14,103.53C174.8,259.23,221.69,212.65,221.01,157.13z"/>
	<path fill="#D22B58" d="M221.01,157.13c0.68,55.52-46.21,102.1-103.01,101.03c-54.68-1.03-100.4-47.01-99.14-103.53
		c1.22-54.58,47.16-99.77,103.4-98.82C176.38,56.71,221.01,101.7,221.01,157.13z M119.74,245.15c48.4,0.02,88.01-39.01,88.06-86.77
		c0.05-49.19-39.04-88.69-87.79-88.71c-48.08-0.02-87.77,39.4-87.81,87.19C32.17,205.78,71.18,245.13,119.74,245.15z"/>
	<path fill="#D22A58" d="M164,141.94c0,5.82,0.19,11.66-0.07,17.47c-0.15,3.3,0.95,4.56,4.18,4.12c5.64-0.78,3.81,3.45,4.05,6.19
		c0.26,2.98,0.32,5.9-4.15,5.11c-3.38-0.6-4.09,1-4.09,4.14c0.02,10.71-0.1,10.63-11.01,10.09c-2.35-0.12-3.41-0.75-3.1-3.14
		c0.04-0.33,0.01-0.66,0-1c-0.19-10.1-0.19-10.1-10.16-10.1c-5.16,0-10.32-0.12-15.47,0.05c-2.64,0.08-3.34-0.91-3.45-3.45
		c-0.19-4.47,0.69-8.27,3.39-12.07c8.28-11.66,16.14-23.6,24.19-35.42c1.92-2.83,12.18-4.93,14.88-3.13
		c1.25,0.84,0.77,2.09,0.78,3.17C164.03,129.96,164,135.95,164,141.94z M133.5,163.39c1.89,0.13,2.84,0.23,3.78,0.25
		c12.24,0.26,12.27,0.25,12.57-11.76c0.11-4.26,0.02-8.53,0.02-13.51C144.24,146.98,139.14,154.76,133.5,163.39z"/>
	<path fill="#D22B58" d="M85.21,176.82c9.85,0,18.01,0.15,26.17-0.07c3.42-0.09,5,0.84,4.48,4.42c-0.17,1.14-0.17,2.35,0,3.49
		c0.53,3.53-0.92,4.49-4.41,4.43c-12.33-0.2-24.66-0.01-36.98-0.15c-2.15-0.02-5.77,1.38-6.23-1.03c-0.69-3.6-1.86-7.78,1.64-11.23
		c7.58-7.49,15.01-15.14,22.36-22.86c3.33-3.5,6.36-7.29,6.97-12.4c0.8-6.8-2.79-10.54-9.61-9.86c-4.27,0.43-8.05,2.25-11.29,4.92
		c-2.24,1.84-3.43,1.34-5.18-0.69c-6.06-7.02-6.14-7.23,1.8-11.92c7.7-4.55,16.08-5.51,24.61-3.41
		c12.53,3.08,17.78,15.43,12.04,27.69c-2.88,6.15-7.58,10.9-12.42,15.5C94.86,167.73,90.55,171.78,85.21,176.82z"/>
	<path fill="#FBF0F3" d="M133.5,163.39c5.64-8.62,10.73-16.41,16.37-25.02c0,4.98,0.09,9.25-0.02,13.51
		c-0.3,12.01-0.33,12.02-12.57,11.76C136.34,163.61,135.39,163.51,133.5,163.39z"/>
</g>
</svg>
