<?xml version="1.0" encoding="utf-8"?>
<!-- Generator: Adobe Illustrator 23.0.1, SVG Export Plug-In . SVG Version: 6.00 Build 0)  -->
<svg version="1.1" id="Слой_1" xmlns="http://www.w3.org/2000/svg" xmlns:xlink="http://www.w3.org/1999/xlink" x="0px" y="0px"
	 viewBox="0 0 17.43 26.38" enable-background="new 0 0 17.43 26.38" xml:space="preserve" width="10" height="19">
<g>
	<path fill="#D63E67" d="M12.07,0.06L13.63,0c1.11,0,3.4,0.85,3.49,1.95c0.12,1.47-0.91,2.8-3.14,2.85
		c-3.17,0.08-3.61,3.59,0.63,3.58c1.34,0,2.77,0.8,2.82,2.48c0.06,1.81-1.46,2.62-2.92,2.62c-2.82,0-2.02,2.4-2.06,5.84
		c-0.05,4.44,0.6,7.05-3.68,7.05c-3.74,0-3.39-3.87-3.36-6.63c0.04-3.46,0.8-5.94-1.93-5.95C0.92,13.79,0.13,12.45,0,11l0,0
		c-0.01-1.2,0.95-2.41,3.04-2.52C4.43,8.39,5.3,8.32,5.29,7.32C5.26,3.96,6.5,1.08,9.92,0.38C11.15,0.13,12.07,0.06,12.07,0.06z"/>
</g>
</svg>
