<?xml version="1.0" encoding="utf-8"?>
<!-- Generator: Adobe Illustrator 23.0.1, SVG Export Plug-In . SVG Version: 6.00 Build 0)  -->
<svg version="1.1" id="Слой_1" xmlns="http://www.w3.org/2000/svg" xmlns:xlink="http://www.w3.org/1999/xlink" x="0px" y="0px"
	 viewBox="0 0 17.63 15.4" enable-background="new 0 0 17.63 15.4" xml:space="preserve" width="17" height="16">
<path fill="#D22856" d="M5.02,3.92C5.14,4,5.82,4.42,6.79,4.68c0.67,0.18,1,0.27,1.33,0.13c0.63-0.27,0.53-1.02,1.2-2.35
	c0.38-0.75,0.73-1.42,1.46-1.9c0.66-0.43,1.77-0.79,2.66-0.38c0.63,0.29,0.71,1.02,1.49,1.4c0.72,0.35,1.23,0.18,1.9,0.53
	c0.46,0.24,0.79,0.39,0.79,1.05c0,0.62-1.17,0.55-1.9,1.44c-0.91,1.11,0.05,1.84-0.89,3.63c-0.63,1.19-2.11,1.71-2.46,2.08
	c-0.57,0.6-0.94,0.92-2.34,1.95c-3.04,2.26-3.11,2.38-3.42,2.51c-1.89,0.76-3.83,0.75-5.11,0.44c-1.38-0.34-1.56-1.3-1.51-1.58
	c0.08-0.38,2.45,0.33,3.49-0.89c0.45-0.53,0.59-1.35,0.38-1.96c-0.19-0.57-0.57-0.65-1.39-1.52C2.28,9.03,1.69,8.41,1.21,7.6
	C0.87,7.02,0.3,6.06,0.26,4.81c-0.03-0.77-0.21-0.84-0.07-2.5C0.28,1.28,0.6,1.17,0.77,1.07C1.3,0.76,2.65,2.42,5.02,3.92z"/>
</svg>
