<svg xmlns="http://www.w3.org/2000/svg" viewBox="0 0 42.08 47.04" width="43" height="47"><path fill="#A4C639" d="M34.14 14.01H7.94c-.01.11-.02.22-.02.33V33.1c0 1.93 1.46 3.49 3.32 3.63v7.43a2.88 2.88 0 002.88 2.88 2.89 2.89 0 002.89-2.88v-7.42h8.06v7.42a2.88 2.88 0 002.88 2.88 2.89 2.89 0 002.89-2.88v-7.43c1.86-.14 3.32-1.7 3.32-3.63V14.34c0-.11-.01-.22-.02-.33zM2.89 15.68a2.89 2.89 0 012.89 2.88v12.38c0 1.59-1.29 2.89-2.89 2.89S0 32.54 0 30.94V18.56c0-1.59 1.29-2.88 2.89-2.88zM39.2 15.68a2.89 2.89 0 012.89 2.88v12.38c0 1.59-1.29 2.89-2.89 2.89-1.59 0-2.88-1.29-2.88-2.89V18.56a2.868 2.868 0 012.88-2.88zM8.03 11.97h26.03c-.04-2.78-1.23-5.32-3.19-7.27L33.32.47c.08-.15.03-.33-.11-.41a.318.318 0 00-.42.11l-2.37 4.11c-2.05-1.85-6.25-3.4-9.37-3.4-3.02 0-7.32 1.55-9.37 3.4L9.3.15a.318.318 0 00-.42-.11c-.14.09-.19.27-.11.42l2.44 4.23c-1.94 1.96-3.14 4.49-3.18 7.28zM25.32 6.8c0-.81.66-1.46 1.49-1.46s1.49.65 1.5 1.45v.01c0 .8-.66 1.46-1.49 1.46-.82.01-1.49-.64-1.5-1.46 0 .01 0 .01 0 0zm-11.14 0c0-.81.66-1.46 1.49-1.46.82 0 1.49.65 1.5 1.45v.01c0 .8-.66 1.46-1.49 1.46-.83.01-1.5-.64-1.5-1.46 0 .01 0 .01 0 0z"/></svg>