<svg xmlns="http://www.w3.org/2000/svg" width="238" height="276"><path fill="#DDD" d="M140 277h-40c-.33-2.46-2.41-1.84-3.9-2.17-22.23-4.96-41.88-14.75-58.41-30.63C19.61 226.84 8.4 205.77 3.1 181.4c-.31-1.42.03-3.15-2.1-3.4v-40c2.42-.4 1.74-2.39 2.07-3.92 4.42-20.54 13.21-38.98 27.16-54.73C49.32 57.8 73.06 44.45 101.62 40c2.2-.34 3.09-1.31 3.37-3.5.67-5.26-2.93-4.47-6.05-4.51-7.59-.08-12.74-3.49-15.09-9.97-2.39-6.58-.54-13.33 5.02-17.91C89.94 3.25 91.04 2.56 91 1h58c.01 2.94 3.06 3.23 4.41 5.04 3.92 5.26 4.97 10.99 2.35 16.92-2.95 6.68-8.64 9.25-15.79 9.07-2.19-.06-4.86-.75-4.98 3.05-.1 3.28.92 4.83 4.47 5.04 3.28.2 6.55 1.07 9.75 1.94 14.72 4.03 28.6 9.9 40.76 19.31 3.22 2.5 5.83 3.35 8.77-.42 1.27-1.64 3.3-2.79 5.18-3.83 5.75-3.16 11.29-2.58 15.14 1.39 3.78 3.9 4.26 9.67.99 15.23a35.59 35.59 0 01-4.79 6.33c-1.73 1.82-2.31 2.97-.49 5.38 11.11 14.66 18.59 31.02 22.13 49.12.28 1.43-.03 3.14 2.09 3.41v40c-2.45.33-1.84 2.4-2.17 3.9-4.98 22.22-14.83 41.85-30.63 58.42-17.31 18.15-38.41 29.34-62.79 34.59-1.41.31-3.15-.03-3.4 2.11zm81.01-119.87c0-55.42-44.62-100.41-98.75-101.33-56.23-.95-102.17 44.24-103.4 98.82-1.27 56.52 44.46 102.5 99.14 103.53 56.8 1.08 103.69-45.5 103.01-101.02z"/><path fill="#D22B58" d="M221.01 157.13c.68 55.52-46.21 102.1-103.01 101.03-54.68-1.03-100.4-47.01-99.14-103.53 1.22-54.58 47.16-99.77 103.4-98.82 54.12.9 98.75 45.89 98.75 101.32zm-101.27 88.02c48.4.02 88.01-39.01 88.06-86.77.05-49.19-39.04-88.69-87.79-88.71-48.08-.02-87.77 39.4-87.81 87.19-.03 48.92 38.98 88.27 87.54 88.29z"/><path fill="#D22A58" d="M164 141.94c0 5.82.19 11.66-.07 17.47-.15 3.3.95 4.56 4.18 4.12 5.64-.78 3.81 3.45 4.05 6.19.26 2.98.32 5.9-4.15 5.11-3.38-.6-4.09 1-4.09 4.14.02 10.71-.1 10.63-11.01 10.09-2.35-.12-3.41-.75-3.1-3.14.04-.33.01-.66 0-1-.19-10.1-.19-10.1-10.16-10.1-5.16 0-10.32-.12-15.47.05-2.64.08-3.34-.91-3.45-3.45-.19-4.47.69-8.27 3.39-12.07 8.28-11.66 16.14-23.6 24.19-35.42 1.92-2.83 12.18-4.93 14.88-3.13 1.25.84.77 2.09.78 3.17.06 5.99.03 11.98.03 17.97zm-30.5 21.45c1.89.13 2.84.23 3.78.25 12.24.26 12.27.25 12.57-11.76.11-4.26.02-8.53.02-13.51-5.63 8.61-10.73 16.39-16.37 25.02z"/><path fill="#D22B58" d="M85.21 176.82c9.85 0 18.01.15 26.17-.07 3.42-.09 5 .84 4.48 4.42-.17 1.14-.17 2.35 0 3.49.53 3.53-.92 4.49-4.41 4.43-12.33-.2-24.66-.01-36.98-.15-2.15-.02-5.77 1.38-6.23-1.03-.69-3.6-1.86-7.78 1.64-11.23 7.58-7.49 15.01-15.14 22.36-22.86 3.33-3.5 6.36-7.29 6.97-12.4.8-6.8-2.79-10.54-9.61-9.86-4.27.43-8.05 2.25-11.29 4.92-2.24 1.84-3.43 1.34-5.18-.69-6.06-7.02-6.14-7.23 1.8-11.92 7.7-4.55 16.08-5.51 24.61-3.41 12.53 3.08 17.78 15.43 12.04 27.69-2.88 6.15-7.58 10.9-12.42 15.5-4.3 4.08-8.61 8.13-13.95 13.17z"/><path fill="#FBF0F3" d="M133.5 163.39c5.64-8.62 10.73-16.41 16.37-25.02 0 4.98.09 9.25-.02 13.51-.3 12.01-.33 12.02-12.57 11.76-.94-.03-1.89-.13-3.78-.25z"/></svg>