<svg xmlns="http://www.w3.org/2000/svg" viewBox="0 0 17.43 26.38" width="10" height="19"><path fill="#D63E67" d="M12.07.06L13.63 0c1.11 0 3.4.85 3.49 1.95.12 1.47-.91 2.8-3.14 2.85-3.17.08-3.61 3.59.63 3.58 1.34 0 2.77.8 2.82 2.48.06 1.81-1.46 2.62-2.92 2.62-2.82 0-2.02 2.4-2.06 5.84-.05 4.44.6 7.05-3.68 7.05-3.74 0-3.39-3.87-3.36-6.63.04-3.46.8-5.94-1.93-5.95C.92 13.79.13 12.45 0 11c-.01-1.2.95-2.41 3.04-2.52 1.39-.09 2.26-.16 2.25-1.16C5.26 3.96 6.5 1.08 9.92.38c1.23-.25 2.15-.32 2.15-.32z"/></svg>