<svg xmlns="http://www.w3.org/2000/svg" viewBox="0 0 17.99 13.97" width="18" height="13"><path fill="#d22856" d="M14.91 1.81c1.2-1 .9-1.81-.66-1.81H3.73c-1.56 0-1.85.82-.66 1.81l3.74 3.12c1.2 1 3.16 1 4.35 0l3.75-3.12z"/><path fill="#d22856" d="M11.91 7.04c-1.2 1-2.2 1.83-2.22 1.84l-.02.01c-.07.06-.15.1-.23.14-.03.01-.07.03-.1.05-.11.03-.22.06-.34.06h-.01-.01c-.11 0-.22-.02-.34-.06a.467.467 0 01-.1-.05c-.08-.04-.15-.08-.23-.14l-.02-.01c-.02-.01-1.02-.84-2.22-1.84L2.18 3.8C.98 2.8 0 3.26 0 4.82v6.32a2.84 2.84 0 002.83 2.83h12.32c1.56 0 2.83-1.27 2.83-2.83V4.82c0-1.56-.98-2.02-2.18-1.02l-3.89 3.24z"/></svg>