<svg xmlns="http://www.w3.org/2000/svg" viewBox="0 0 19.7 19.7" width="20" height="19"><path fill="#d22856" d="M9.85 0c-3.51 0-7.03.63-8.3 1.88C.49 2.92.13 4.75.02 5.91c0 0-.02.11-.02.17 0 .45.37.82.82.82.05 0 2.03-.16 3.22-.26.03 0 .06-.01.09-.02.44-.01.8-.37.8-.82V4.18c0-.5.41-.9.91-.9h8.03c.5 0 .91.4.91.9V5.8c0 .45.36.81.8.82.03.01.06.01.09.02 1.19.1 3.16.26 3.22.26.45 0 .82-.37.82-.82 0-.05-.02-.17-.02-.17-.12-1.16-.47-3-1.53-4.04C16.87.63 13.36 0 9.85 0zm0 10.67c-.91 0-1.64.73-1.64 1.64s.73 1.64 1.64 1.64a1.641 1.641 0 000-3.28zm-1.23-3.7V5.95c0-.57-.46-1.03-1.03-1.03s-1.02.46-1.02 1.03v1.02l-5.54 5.91c-.38.38-.62.89-.62 1.47V16c0 .91.73 1.64 1.64 1.64h.41v1.02c0 .57.46 1.03 1.03 1.03.57 0 1.02-.46 1.02-1.03v-1.02h10.67v1.02c0 .57.46 1.03 1.02 1.03.57 0 1.03-.46 1.03-1.03v-1.02h.41c.9 0 1.64-.73 1.64-1.64v-1.65c0-.58-.24-1.09-.62-1.47l-5.54-5.91V5.95c0-.57-.46-1.03-1.02-1.03-.57 0-1.03.46-1.03 1.03v1.02H8.62zm1.23 2.06c1.81 0 3.28 1.47 3.28 3.28 0 1.81-1.47 3.28-3.28 3.28-1.81 0-3.28-1.47-3.28-3.28 0-1.81 1.46-3.28 3.28-3.28z"/></svg>