<svg xmlns="http://www.w3.org/2000/svg" viewBox="0 0 80 64" width="79" height="63"><g fill="#EEE"><path d="M58 64c-13.9-7.49-17.66-26.54-8.48-41.83 4.95-8.25 12.2-13.81 20.28-18.55C71.22 2.78 72.6 1.87 74 1h6v7c-3.14 1.88-6.46 3.53-9.4 5.69-5.68 4.19-10.83 8.95-12.94 16.04-1.44 4.85-.38 6.05 4.55 5.53 8.77-.92 14 3.06 15.5 11.73C79.07 54.86 75.25 60.04 69 64H58zM32 1c4.23 6.51 4.28 6.6-2.4 10.9-7.12 4.58-13.44 9.79-16.02 18.29-1.27 4.2-.12 5.61 4.06 5.17 8-.84 13.02 1.78 15.28 7.98 2.76 7.57.46 15-5.92 19.2-.69.45-1.34.98-2 1.47H14C6.67 61.1 2.75 55.43 1 48V34c3.02-11.2 9.11-20.22 18.91-26.59C23.25 5.24 26.64 3.14 30 1h2z"/></g></svg>