<svg xmlns="http://www.w3.org/2000/svg" viewBox="0 0 17.63 15.4" width="17" height="16"><path fill="#D22856" d="M5.02 3.92c.12.08.8.5 1.77.76.67.18 1 .27 1.33.13.63-.27.53-1.02 1.2-2.35.38-.75.73-1.42 1.46-1.9.66-.43 1.77-.79 2.66-.38.63.29.71 1.02 1.49 1.4.72.35 1.23.18 1.9.53.46.24.79.39.79 1.05 0 .62-1.17.55-1.9 1.44-.91 1.11.05 1.84-.89 3.63-.63 1.19-2.11 1.71-2.46 2.08-.57.6-.94.92-2.34 1.95-3.04 2.26-3.11 2.38-3.42 2.51-1.89.76-3.83.75-5.11.44-1.38-.34-1.56-1.3-1.51-1.58.08-.38 2.45.33 3.49-.89.45-.53.59-1.35.38-1.96-.19-.57-.57-.65-1.39-1.52-.19-.23-.78-.85-1.26-1.66C.87 7.02.3 6.06.26 4.81c-.03-.77-.21-.84-.07-2.5.09-1.03.41-1.14.58-1.24.53-.31 1.88 1.35 4.25 2.85z"/></svg>